<svg width="1024" height="1024" xmlns="http://www.w3.org/2000/svg" version="1.1" enable-background="new 0 0 1024 1024" xml:space="preserve">
 <defs>
  <filter id="svg_11_blur">
   <feGaussianBlur in="SourceGraphic" stdDeviation="0.1"/>
  </filter>
 </defs>
 <g>
  <title>Layer 1</title>
  <g id="svg_12">
   <path fill="#7AD6CA" d="m871.22505,733.95314c-3.81103,47.48995 -22.55482,86.22615 -60.42775,114.7313c-9.71119,7.30912 -20.11131,13.00044 -31.98389,15.77929c-2.56842,0.60127 -5.08495,0.9571 -6.1266,4.31513c-5.89432,19.00085 -19.10427,32.29271 -34.43215,43.74894c-23.1796,17.32485 -48.26429,31.45034 -76.65823,37.13462c-53.27498,10.66516 -100.56474,-2.87889 -141.23157,-39.37815c-1.6209,-1.45492 -3.28153,-2.86482 -5.58215,-4.86941c-9.14991,11.57735 -21.18328,18.80936 -33.49353,25.87656c-46.21634,26.53305 -94.09429,28.42542 -143.17126,9.89839c-27.09117,-10.22716 -51.41139,-25.02842 -70.05196,-48.01075c-1.08161,-1.33352 -2.14652,-2.68695 -3.12943,-4.09488c-9.30716,-13.33246 -12.57688,-14.96939 -27.17067,-23.10365c-33.91271,-18.90235 -57.90639,-47.06305 -72.41106,-83.23216c-5.96448,-14.87315 -9.73171,-30.39285 -11.03234,-46.49614c-0.69758,-8.6373 -1.1407,-17.23556 0.67665,-25.72132c1.04468,-4.87817 -0.11552,-7.53436 -4.8283,-9.76571c-13.37633,-6.33299 -25.16517,-15.06355 -35.21657,-26.05101c-27.46605,-30.02366 -48.5124,-63.30415 -54.80669,-104.76784c-5.44829,-35.89054 -3.21708,-71.24457 6.20238,-105.99504c11.01802,-40.64766 35.8132,-71.68471 69.74018,-95.53025c4.64756,-3.26653 5.17572,-5.94482 4.06782,-11.38529c-6.52797,-32.0571 -2.98801,-63.34018 10.55385,-92.97076c17.48274,-38.2535 46.38253,-65.20458 84.24325,-82.60097c1.55304,-0.71358 3.16817,-1.89772 4.73748,-1.87062c11.873,0.20514 16.07051,-7.6321 21.0297,-17.08565c16.71181,-31.85744 42.558,-55.1969 73.81943,-71.70573c38.09085,-20.11535 78.73062,-25.39572 120.79355,-15.09836c20.71829,5.07203 38.70017,16.19125 55.89114,28.45612c4.50919,3.21714 7.26667,3.88634 11.85425,0.00597c25.13881,-21.26373 54.79137,-30.86194 87.14748,-31.47824c69.01174,-1.31441 120.43605,30.47797 155.96604,88.50228c7.26239,11.86009 15.28619,17.46025 27.35248,23.05655c44.59776,20.68433 74.72328,55.07318 87.74908,103.58923c5.1399,19.14432 7.65204,38.53397 5.99885,58.37489c-0.0817,0.97947 0.23182,2.08298 -0.1105,2.93635c-4.86575,12.12654 1.75117,17.95219 10.68501,25.22222c40.61797,33.05345 61.95811,76.8832 67.27622,128.94626c3.71969,36.41303 1.39579,72.24395 -10.38769,107.10306c-6.87647,20.34284 -17.89593,38.16515 -32.78064,53.59645c-13.66778,14.16969 -27.57849,27.96514 -46.10924,35.73671c-3.14633,1.31961 -4.01019,3.55809 -3.7178,7.06117c0.73709,8.8297 0.96864,17.70242 -0.9248,27.14044m-379.563,120.59425c2.70303,-5.67778 3.37623,-11.68884 3.41873,-17.93785c0.2444,-35.93802 -0.88797,-71.86136 -0.37163,-107.8131c0.71409,-49.71968 0.31396,-99.45722 0.20073,-149.1867c-0.06164,-27.08019 -0.3578,-54.16086 -0.67713,-81.24056c-0.65894,-55.87902 -0.21045,-111.77218 -0.08845,-167.65928c0.05749,-26.34308 1.03746,-52.69923 0.46674,-79.02454c-0.63531,-29.30078 -0.90551,-58.59564 -0.75972,-87.89414c0.03074,-6.177 -2.02706,-10.71514 -6.04858,-15.14541c-20.04433,-22.08176 -45.26702,-32.16361 -74.45334,-32.10445c-49.13031,0.09964 -85.37791,23.76798 -111.95424,64.08068c-5.44491,8.25924 -7.74474,18.02639 -10.77981,27.37442c-1.16552,3.58977 -2.82624,5.90745 -7.09725,6.07078c-15.05435,0.57572 -28.21589,6.61472 -41.03815,14.1926c-53.71837,31.74746 -68.14801,86.99243 -54.25798,142.08655c3.83698,15.2192 4.55459,15.37827 -9.06876,23.29258c-10.3698,6.02424 -20.92591,11.77278 -29.54369,20.35114c-48.12998,47.91005 -61.48283,122.83468 -34.55977,183.55499c16.48619,37.18184 41.65694,64.4049 86.46314,63.37527c2.64805,-0.0608 5.39704,0.28142 7.51626,3.21272c-1.17018,3.68004 -2.38443,7.63817 -3.68541,11.56717c-7.58117,22.89349 -9.70157,46.22959 -3.98304,69.758c9.42678,38.78618 28.62129,70.90219 67.93462,84.15717c13.17371,4.44159 20.21218,10.50001 26.26287,22.22628c14.85116,28.78136 41.93919,41.49079 70.90106,50.79422c49.20788,15.80708 99.11182,-3.15364 125.20281,-48.08852m126.96324,-116.95688c1.19652,-15.73401 0.89366,-31.49166 0.68635,-47.24533c-0.38223,-29.04834 -0.77923,-58.09677 -1.27348,-87.14335c-0.07632,-4.4843 0.9529,-6.52385 6.16205,-6.4594c52.0151,0.64371 104.04219,1.56672 156.03064,-0.97704c6.90404,-0.33785 11.35749,1.42619 15.06222,7.4607c8.37946,13.64874 20.23969,19.36486 36.19889,14.48985c23.28215,-7.11195 45.9932,-35.09376 24.13314,-63.57474c-5.01937,-6.53959 -11.42862,-11.44553 -19.01445,-14.64017c-17.9778,-7.57105 -36.42838,-0.89225 -45.18363,16.76857c-2.23325,4.50492 -5.05542,5.90553 -9.70402,5.92234c-18.80767,0.0681 -37.62571,0.08271 -56.41505,0.78817c-6.07802,0.22821 -7.25566,-1.867 -7.72674,-7.37719c-1.83215,-21.43077 -0.10522,-42.80598 0.21394,-64.20474c0.27683,-18.56027 -7.6125,-26.50074 -26.24766,-26.26208c-21.7306,0.27826 -43.45743,0.86748 -65.18498,1.35913c-3.60184,0.08144 -6.86314,0.28958 -6.93723,-4.98023c-0.1658,-11.81206 -0.58228,-23.62244 -1.04191,-35.42769c-0.21375,-5.4876 2.3017,-7.17387 7.5375,-7.22559c22.69967,-0.22438 45.40248,-1.40034 68.073,0.80182c3.77935,0.36711 7.30747,-0.63897 10.59589,-2.3284c7.68389,-3.94772 13.16028,-15.39577 11.16359,-23.01364c-2.69054,-10.26523 -7.25915,-13.41034 -19.41805,-13.35961c-23.93557,0.09995 -47.87133,0.18748 -71.80663,0.33897c-1.47551,0.00933 -2.85385,0.35917 -3.98999,-1.00613c-2.9163,-3.50419 -2.08159,-14.14492 1.50029,-17.45704c8.81627,-8.15257 17.67906,-16.25406 26.51179,-24.38859c22.69163,-20.89783 44.43331,-42.87724 69.47477,-61.08629c5.32743,-3.87383 9.79215,-8.92167 12.83747,-14.98657c1.23358,-2.45635 2.58372,-5.11678 0.39592,-7.56493c-6.85214,-7.66752 -13.77604,-15.27485 -20.86242,-22.72144c-2.05835,-2.16298 -5.63745,-4.20644 -7.87528,-1.93679c-9.78758,9.92684 -24.32692,16.08593 -26.23906,32.47582c-0.1844,1.58079 -1.08818,2.65814 -2.24327,3.65056c-18.45882,15.85938 -34.0518,34.51933 -50.40557,52.43675c-0.96167,1.05362 -1.8861,2.32831 -3.70492,1.82906c-1.90989,-1.34807 -1.50047,-3.4462 -1.50198,-5.35125c-0.02121,-26.1 0.03471,-52.20012 -0.06183,-78.29971c-0.01226,-3.31731 0.97482,-5.40726 3.89138,-7.17161c13.45206,-8.13769 23.21943,-26.74373 11.82874,-45.98428c-7.41913,-12.53216 -20.19022,-19.99175 -34.04061,-18.53476c-13.9149,1.46376 -27.55915,14.5321 -31.62993,30.29466c-2.50418,9.69686 3.03521,25.04145 12.42008,31.22835c4.87361,3.21296 5.93235,6.7393 5.9209,12.10319c-0.22942,107.10328 -0.31326,214.207 -0.39038,321.31061c-0.03471,48.26665 0.11336,96.53377 -0.03257,144.79989c-0.06182,20.43159 -0.12481,40.86156 -0.71051,61.2991c-0.68402,23.86856 -0.28756,47.77084 -0.21133,71.65798c0.03024,9.47805 6.91755,17.60825 15.4857,18.82053c6.66863,0.94349 14.87603,-5.11745 17.78167,-12.94162c1.07369,-2.89125 0.84338,-5.82732 0.81922,-8.75448c-0.2644,-32.00173 -0.57942,-64.00311 -0.87164,-97.43134m108.56588,-94.9587c-14.46069,-15.6201 -34.99162,-15.83053 -49.8902,-1.48226c-12.48441,12.02331 -12.28918,36.75588 3.29521,48.22779c2.80991,2.06837 3.51828,4.42662 3.33585,8.15266c-0.68554,14.00264 -0.91067,28.05489 0.24068,42.05013c0.45963,5.58676 1.6125,10.82969 -5.50405,13.25577c-2.83111,0.96496 -3.1312,4.41688 -3.45429,6.96881c-1.05865,8.36111 -0.94152,16.66595 2.51412,24.63082c4.76079,10.9732 17.87258,17.63352 29.65184,14.9196c11.00201,-2.53496 17.97101,-12.09366 16.24409,-25.19547c-2.46589,-18.70824 -5.73068,-37.26622 -4.56011,-56.27303c0.28507,-4.62858 -0.12589,-9.37514 -0.82816,-13.97259c-0.9239,-6.04921 0.99968,-10.01438 6.01655,-13.68631c13.04638,-9.54859 16.10512,-24.35391 8.59481,-38.61146c-1.48418,-2.81755 -3.33459,-5.43911 -5.65633,-8.98447m55.52078,-221.59395c-13.10572,13.61812 -15.86767,26.45759 -8.73262,40.59588c8.46947,16.78235 22.02032,23.8925 40.08115,21.7725c17.58413,-2.06398 36.89714,-29.26855 22.94939,-51.11728c-13.09246,-20.50893 -35.88081,-26.36233 -54.29792,-11.2511m-43.5664,-59.60034c2.59687,4.82716 6.02353,9.02575 10.32711,12.31911c10.58702,8.10189 22.43663,10.01577 34.38525,4.27797c13.36653,-6.41863 21.70438,-18.05385 21.14373,-32.82696c-0.61789,-16.28224 -10.27145,-27.67455 -25.85191,-33.36789c-12.42203,-4.5391 -26.41873,-1.1762 -35.48954,8.78018c-7.92367,8.69726 -13.00272,25.97078 -4.51465,40.8176l0.00001,-0.00001z" id="svg_1" filter="url(#svg_11_blur)"/>
   <path fill="#7AD6CA" d="m413.18338,499.20792c-20.2591,0.00031 -39.80681,0.17561 -59.34736,-0.12375c-5.82186,-0.08922 -7.74907,1.89419 -7.50991,7.67394c0.63079,15.2462 0.94078,30.5087 1.15296,45.7679c0.06679,4.80401 2.04178,6.38675 6.68917,6.32171c24.66594,-0.34497 49.33489,-0.4712 74.00276,-0.67695c0.73203,-0.00609 1.46432,-0.09028 2.19541,-0.07702c12.26077,0.22175 12.73677,0.70247 12.73936,12.9354c0.01901,88.66604 0.03524,177.33217 0.0539,265.99821c0.00273,12.88001 -6.334,19.89788 -18.11322,20.04734c-13.28153,0.16858 -19.52449,-6.12012 -19.52945,-19.97248c-0.02752,-76.10498 -0.00479,-152.21003 -0.0077,-228.31501c-0.00041,-10.5833 -0.02712,-10.47751 -10.3714,-10.98195c-48.5907,-2.3694 -97.2093,-0.44824 -145.8089,-1.12754c-5.41367,-0.07564 -7.61235,2.83898 -10.13958,6.75647c-10.88171,16.86795 -29.9153,22.34035 -51.90178,15.23588c-14.06831,-4.54587 -28.6226,-25.7764 -28.01114,-40.86012c0.84763,-20.9092 21.67132,-40.29105 42.50753,-41.41999c16.03355,-0.86884 27.42209,5.2206 35.54036,18.49718c1.97312,3.22683 4.37181,4.05369 7.84986,4.02617c18.81117,-0.14868 37.62631,-0.32119 56.43398,-0.05127c5.93821,0.08518 7.64792,-2.15947 7.41851,-7.80874c-0.76875,-18.93671 0.52803,-37.91222 -1.12965,-56.8466c-1.64989,-18.8453 10.63857,-31.27035 26.51733,-32.22809c20.7522,-1.25164 41.51156,-0.4891 62.2667,-0.6608c10.08016,-0.08339 9.83626,0.02025 9.3502,-10.10044c-0.46048,-9.58723 -0.68931,-19.21625 -0.34241,-28.802c0.23915,-6.609 -2.59482,-7.901 -8.35835,-7.35598c-21.64518,2.0468 -43.3538,2.94812 -65.09634,2.90951c-13.32367,-0.02363 -21.69995,-7.34511 -22.0293,-19.19072c-0.41967,-15.09354 6.1488,-22.56986 21.2142,-23.05138c13.66098,-0.43665 27.33614,-0.14712 40.97717,-1.46782c8.49926,-0.82284 17.04733,-1.12745 25.57097,-1.7026c2.97079,-0.20047 6.10096,-0.46976 7.18083,-3.92488c1.05757,-3.38373 -1.89822,-4.47195 -3.82866,-6.32149c-11.50105,-11.01911 -23.17527,-21.88375 -34.17316,-33.40023c-14.78688,-15.48416 -30.47152,-29.84051 -47.7853,-42.39206c-7.74339,-5.61352 -15.20404,-11.61038 -21.782,-18.59708c-5.65378,-6.00512 -5.97735,-10.05217 -0.38308,-16.06193c7.00729,-7.52776 14.55604,-14.55353 22.02891,-21.62655c4.09089,-3.87199 8.71704,-3.43633 12.45273,0.32295c9.29395,9.35278 19.6676,17.79097 25.4155,30.2474c3.71677,8.05471 11.13179,12.99241 17.07738,19.10143c10.0086,10.28366 20.53742,20.05271 31.29253,30.46933c0,-26.26487 -0.01481,-51.54215 0.02041,-76.81939c0.00402,-2.88512 -1.67893,-4.24411 -3.84521,-5.71459c-21.80396,-14.80028 -19.60842,-47.37492 3.74728,-59.82881c28.50804,-15.20127 50.75013,7.1526 54.69802,26.75901c2.42455,12.04122 -3.20154,21.86816 -11.56914,29.57668c-4.35628,4.01317 -5.52145,7.92418 -5.5143,13.38335c0.10348,79.03736 0.0566,158.07483 0.06076,237.11232c0.00107,19.70048 -0.51,20.38939 -19.69284,23.58993c-3.11363,0.51937 -6.3115,0.52581 -10.18454,0.77612m-203.78351,69.80108c-5.74499,-2.59017 -10.7569,-0.25784 -14.2464,6.6296c-2.09721,4.13943 1.27665,11.41721 6.63858,13.7099c5.78749,2.47471 9.14346,-0.83737 11.80524,-5.5142c3.3048,-5.80645 1.37843,-10.29915 -4.19742,-14.8253z" id="svg_2" filter="url(#svg_11_blur)"/>
   <path fill="#7AD6CA" d="m305.00206,787.92138c-9.56802,-17.21725 -8.75726,-25.69868 3.7207,-40.90819c1.18884,-1.44905 1.69472,-2.93978 1.62981,-4.70976c-0.51322,-14.00011 -1.08268,-27.99824 -1.53697,-42.00024c-0.13158,-4.05609 -3.04326,-5.80622 -5.68014,-8.02566c-10.70093,-9.00686 -16.17792,-20.27203 -13.19232,-34.48637c2.1934,-10.44292 8.08007,-18.26583 17.99038,-22.74656c11.22967,-5.07723 22.81957,-5.57567 34.22507,-1.55404c19.45895,6.86137 26.13863,34.7805 12.26286,52.67993c-4.86866,6.28058 -7.08912,12.36046 -6.81072,20.10786c0.39718,11.05087 0.17077,22.12518 0.17404,33.18949c0.00081,2.74936 0.42433,5.30109 1.82226,7.76652c5.72477,10.09618 5.91447,21.16086 4.96143,32.2744c-0.91813,10.70512 -6.80691,17.54457 -17.03172,20.6744c-10.37864,3.1771 -19.78861,1.96591 -27.69953,-6.04073c-1.70608,-1.72669 -3.0416,-3.82544 -4.83514,-6.22106l-0.00001,0.00001z" id="svg_3" filter="url(#svg_11_blur)"/>
   <path fill="#7AD6CA" d="m209.1574,413.52223c15.33646,-4.93047 28.75443,-3.20437 39.09554,9.37109c10.51635,12.78854 13.29884,27.1518 6.29866,42.69054c-7.54945,16.758 -27.08766,24.35061 -46.78212,18.35578c-14.97091,-4.55705 -25.20923,-21.78814 -23.152,-38.56824c1.8801,-15.33609 9.76176,-25.89091 24.53992,-31.84916l0,-0.00001z" id="svg_4" filter="url(#svg_11_blur)"/>
   <path fill="#7AD6CA" d="m279.40308,317.30976c14.6116,14.24039 17.13274,35.30749 6.43149,50.67448c-10.54524,15.14299 -30.07994,20.28263 -46.01448,12.1066c-19.21344,-9.85843 -26.22886,-35.33681 -14.40093,-53.89821c10.63499,-16.68927 35.75348,-24.58207 53.98392,-8.88287z" id="svg_5" filter="url(#svg_11_blur)"/>
   <path fill="#7AD6CA" d="m655.192,562.65079c-10.4862,0.00504 -20.24613,-0.21355 -29.98979,0.09485c-5.19188,0.16425 -7.26891,-1.90316 -6.64752,-6.90216c1.98417,-15.96082 0.54981,-31.90846 -0.32041,-47.83735c-0.32595,-5.96524 1.53823,-7.31657 7.43391,-7.12043c16.56304,0.55098 33.15733,0.3884 49.73389,0.13769c5.44016,-0.08221 7.97781,1.28846 7.89792,7.32428c-0.21152,15.97304 -0.02372,31.95423 0.21741,47.92891c0.07114,4.70985 -1.59316,6.66058 -6.38258,6.47419c-7.0608,-0.2748 -14.13904,-0.09219 -21.94283,-0.09999l0,0.00001z" id="svg_6" filter="url(#svg_11_blur)"/>
   <path fill="#7AD6CA" d="m814.48038,570.75259c3.51702,-3.90677 7.50717,-5.72802 12.11058,-5.21285c5.43873,0.60872 10.18378,2.66647 10.23434,9.30609c0.04813,6.31837 -4.8985,11.23758 -11.04013,11.44097c-10.14701,0.33604 -15.24502,-6.27146 -11.30479,-15.53421z" id="svg_7" filter="url(#svg_11_blur)"/>
   <path fill="#7AD6CA" d="m594.63129,201.74108c-2.84598,-6.21911 0.69171,-8.73781 5.11304,-10.3793c4.33849,-1.61076 9.22328,-3.36069 12.34501,1.85513c2.25312,3.76475 2.27629,8.10604 -1.02241,11.52772c-3.75779,3.89806 -8.2082,3.80162 -12.59034,1.07126c-1.39149,-0.86703 -2.40281,-2.35428 -3.8453,-4.07481z" id="svg_8" filter="url(#svg_11_blur)"/>
   <path fill="#7AD6CA" d="m709.95386,662.56361c-0.49953,6.18677 -3.67691,8.49515 -8.91826,7.66387c-5.28315,-0.83794 -7.20736,-4.45548 -6.75203,-9.57087c0.48002,-5.3913 3.74742,-7.80486 8.79845,-7.71203c5.76979,0.10589 7.30855,3.86657 6.87184,9.61904l0,-0.00001z" id="svg_9" filter="url(#svg_11_blur)"/>
   <path fill="#7AD6CA" d="m815.33968,447.97594c-0.57772,1.70788 -0.85697,3.01252 -1.62859,3.86329c-3.921,4.32271 -8.79372,5.17727 -13.81435,2.58411c-4.02585,-2.07927 -6.09769,-5.90021 -4.40262,-10.4288c2.13537,-5.7047 7.09684,-6.91454 12.52743,-6.36433c5.74509,0.58206 7.64658,4.38747 7.31813,10.34573z" id="svg_10" filter="url(#svg_11_blur)"/>
   <path fill="#7AD6CA" d="m767.08505,334.69965c5.53653,-0.4105 10.05386,0.357 11.6915,5.937c1.70706,5.8166 -0.42492,10.33306 -5.88727,12.62502c-5.61347,2.35537 -9.66876,-0.42155 -11.59361,-5.64459c-2.02747,-5.50116 -2.08214,-10.83158 5.78938,-12.91744l0,0.00001z" id="svg_11"/>
  </g>
 </g>
</svg>